<?xml version="1.0" encoding="utf-8"?>
<!-- Generator: Adobe Illustrator 17.0.0, SVG Export Plug-In . SVG Version: 6.00 Build 0)  -->
<!DOCTYPE svg PUBLIC "-//W3C//DTD SVG 1.1//EN" "http://www.w3.org/Graphics/SVG/1.1/DTD/svg11.dtd">
<svg version="1.1" id="Calque_1" xmlns="http://www.w3.org/2000/svg" xmlns:xlink="http://www.w3.org/1999/xlink" x="0px" y="0px"
	 width="866px" height="158px" viewBox="0 0 866 158" enable-background="new 0 0 866 158" xml:space="preserve">
<g>
	
		<path fill="#DA713B" stroke="#DA713B" stroke-width="3" stroke-linecap="round" stroke-linejoin="round" stroke-miterlimit="10" d="
		M87.345,56.551c-3.027-4.312-5.755-7.37-8.187-9.176c-2.432-1.805-5.053-3.099-7.862-3.881c-2.811-0.78-5.755-1.172-8.835-1.172
		c-4.539,0-8.754,1.01-12.645,3.032c-3.891,2.021-7.254,4.77-10.091,8.246c-2.837,3.477-5.066,7.519-6.687,12.127
		c-1.621,4.608-2.432,9.5-2.432,14.673c0,5.229,0.796,10.146,2.391,14.755c1.593,4.608,3.795,8.638,6.606,12.086
		c2.809,3.45,6.16,6.185,10.051,8.206s8.159,3.032,12.807,3.032c3.242,0,6.268-0.525,9.078-1.577
		c2.809-1.051,5.362-2.438,7.66-4.164c2.296-1.724,4.309-3.705,6.039-5.942c1.729-2.236,3.08-4.568,4.053-6.993l26.1,7.276
		c-1.676,5.283-4.134,10.174-7.376,14.674c-3.242,4.501-7.147,8.396-11.712,11.682c-4.567,3.288-9.7,5.875-15.4,7.761
		c-5.702,1.886-11.848,2.83-18.44,2.83c-5.566,0-10.889-0.756-15.968-2.264c-5.08-1.508-9.822-3.638-14.225-6.387
		c-4.405-2.749-8.403-6.063-11.996-9.944c-3.594-3.88-6.661-8.178-9.2-12.895c-2.541-4.715-4.513-9.782-5.917-15.199
		C3.75,91.922,3.048,86.276,3.048,80.401c0-8.784,1.54-17.018,4.62-24.699c3.08-7.68,7.295-14.391,12.645-20.131
		s11.631-10.268,18.845-13.582c7.214-3.315,14.981-4.972,23.303-4.972c6.646,0,12.239,0.822,16.778,2.466
		c4.539,1.645,9.537,4.891,14.995,9.742h18.156v27.326H87.345z"/>
	
		<path fill="#DA713B" stroke="#DA713B" stroke-width="3" stroke-linecap="round" stroke-linejoin="round" stroke-miterlimit="10" d="
		M146.045,25.352c14.921-14.883,32.983-22.331,54.175-22.331s39.248,7.447,54.175,22.331c14.921,14.889,22.388,32.899,22.388,54.036
		c0,21.137-7.466,39.153-22.388,54.036c-14.927,14.883-32.983,22.331-54.175,22.331s-39.253-7.447-54.175-22.331
		c-14.927-14.883-22.388-32.899-22.388-54.036C123.658,58.251,131.119,40.241,146.045,25.352z M246.705,125.753
		c3.642-3.633,6.606-7.383,8.887-11.25l-9.229-5.455l2.734-4.773l9.229,5.455c4.785-9.088,7.29-18.292,7.52-27.615h-10.938v-5.455
		h10.938c-0.229-9.317-2.734-18.521-7.52-27.615l-9.229,5.455l-2.734-4.773l9.229-5.455c-2.28-3.862-5.245-7.612-8.887-11.25
		c-3.647-3.633-7.407-6.589-11.279-8.864l-5.469,9.205l-4.785-2.728l5.469-9.205c-9.116-4.773-18.345-7.271-27.686-7.5V24.84h-5.469
		V13.931c-9.346,0.229-18.575,2.727-27.686,7.5l5.469,9.205l-4.785,2.728l-5.469-9.205c-3.877,2.274-7.637,5.231-11.279,8.864
		c-3.647,3.639-6.612,7.389-8.887,11.25l9.229,5.455l-2.734,4.773l-9.229-5.455c-4.785,9.093-7.295,18.298-7.52,27.615h10.938v5.455
		h-10.938c0.224,9.322,2.734,18.527,7.52,27.615l9.229-5.455l2.734,4.773l-9.229,5.455c2.275,3.867,5.239,7.617,8.887,11.25
		c3.642,3.639,7.402,6.595,11.279,8.864l5.469-9.205l4.785,2.728l-5.469,9.205c9.111,4.773,18.339,7.277,27.686,7.5v-10.91h5.469
		v10.91c9.341-0.224,18.569-2.728,27.686-7.5l-5.469-9.205l4.785-2.728l5.469,9.205
		C239.297,132.348,243.057,129.392,246.705,125.753z M249.439,74.274v10.91h-39.99c-2.28,3.409-5.356,5.114-9.229,5.114
		c-3.194,0-5.811-1.023-7.861-3.068s-3.076-4.656-3.076-7.841c0-4.091,1.821-7.271,5.469-9.545V46.66h10.938v23.183
		c1.591,0.911,2.958,2.386,4.102,4.432H249.439z"/>
	
		<path fill="#DA713B" stroke="#DA713B" stroke-width="3" stroke-linecap="round" stroke-linejoin="round" stroke-miterlimit="10" d="
		M283.429,19.281h47.174c5.619,0,11.009,0.728,16.17,2.183c5.16,1.456,9.97,3.504,14.428,6.145c4.458,2.642,8.511,5.809,12.158,9.5
		c3.647,3.692,6.768,7.802,9.361,12.329s4.592,9.406,5.998,14.633c1.404,5.229,2.107,10.672,2.107,16.331
		c0,5.66-0.703,11.104-2.107,16.331c-1.406,5.229-3.404,10.12-5.998,14.674c-2.594,4.555-5.714,8.705-9.361,12.451
		c-3.647,3.747-7.7,6.953-12.158,9.621s-9.268,4.729-14.428,6.185c-5.161,1.456-10.551,2.183-16.17,2.183h-47.174v-22.152h9.808
		V41.514h-9.808V19.281z M320.147,41.514v78.179h10.294c4.377,0,8.511-1.023,12.401-3.072c3.891-2.048,7.267-4.837,10.132-8.368
		c2.863-3.53,5.133-7.681,6.809-12.451c1.674-4.77,2.513-9.904,2.513-15.401c0-5.443-0.838-10.537-2.513-15.28
		c-1.676-4.742-3.945-8.866-6.809-12.37c-2.865-3.503-6.241-6.252-10.132-8.247c-3.891-1.993-8.024-2.991-12.401-2.991H320.147z"/>
	
		<path fill="#DA713B" stroke="#DA713B" stroke-width="3" stroke-linecap="round" stroke-linejoin="round" stroke-miterlimit="10" d="
		M404.931,19.281h97.752v41.798h-26.424V43.696h-31.53V67.87h24.397v23.446h-24.397v28.377h31.53V97.945h26.424v43.9h-97.752
		v-22.152h12.888V43.696h-12.888V19.281z"/>
</g>
<g>
	<path fill="#D0C8C5" stroke="#D0C8C5" stroke-width="2" stroke-miterlimit="10" d="M174.875,114.424h-1.216
		c-1.408,0-2.112-0.565-2.112-1.696v-7.264c0-0.832-0.262-1.477-0.784-1.937c-0.523-0.458-1.264-0.688-2.224-0.688
		c-2.411,0-4.288,1.237-5.632,3.712v7.744c0,0.192-0.091,0.288-0.272,0.288c-0.182,0-0.272-0.096-0.272-0.288V90.968h-2.752
		c-0.192,0-0.288-0.09-0.288-0.272c0-0.181,0.096-0.272,0.288-0.272h3.04c0.17,0,0.256,0.096,0.256,0.288v14.88
		c1.387-2.197,3.264-3.296,5.632-3.296c1.088,0,1.952,0.277,2.592,0.832s0.96,1.333,0.96,2.336v7.264
		c0,0.769,0.522,1.152,1.568,1.152h1.216c0.17,0,0.256,0.091,0.256,0.271C175.131,114.333,175.046,114.424,174.875,114.424z"/>
	<path fill="#D0C8C5" stroke="#D0C8C5" stroke-width="2" stroke-miterlimit="10" d="M182.459,114.584
		c-1.813,0-3.232-0.581-4.256-1.744c-1.024-1.162-1.536-2.645-1.536-4.448c0-1.803,0.533-3.269,1.6-4.399
		c1.066-1.131,2.464-1.696,4.192-1.696s3.008,0.522,3.84,1.568c0.832,1.045,1.248,2.464,1.248,4.256
		c0,0.191-0.085,0.288-0.256,0.288h-10.08v0.031c0,1.707,0.475,3.067,1.424,4.08c0.949,1.014,2.224,1.521,3.824,1.521
		c2.048,0,3.552-0.769,4.512-2.305c0.106-0.148,0.235-0.176,0.384-0.079c0.149,0.096,0.181,0.219,0.096,0.367
		C186.384,113.731,184.72,114.584,182.459,114.584z M187.003,107.865c0-1.515-0.374-2.73-1.12-3.648
		c-0.747-0.917-1.877-1.376-3.392-1.376s-2.741,0.459-3.68,1.376c-0.939,0.918-1.472,2.134-1.6,3.648H187.003z"/>
	<path fill="#D0C8C5" stroke="#D0C8C5" stroke-width="2" stroke-miterlimit="10" d="M195.707,114.584
		c-1.131,0-2.005-0.288-2.624-0.864c-0.619-0.576-0.928-1.344-0.928-2.304v-7.265c0-0.768-0.523-1.151-1.568-1.151h-1.184
		c-0.192,0-0.288-0.091-0.288-0.272c0-0.181,0.096-0.271,0.288-0.271h1.184c1.408,0,2.112,0.565,2.112,1.695v7.265
		c0,0.832,0.266,1.478,0.8,1.936c0.533,0.459,1.269,0.688,2.208,0.688c2.432,0,4.309-1.227,5.632-3.681v-7.775
		c0-0.192,0.091-0.288,0.272-0.288s0.272,0.096,0.272,0.288v10.144c0,0.769,0.522,1.152,1.568,1.152h1.216
		c0.17,0,0.256,0.091,0.256,0.271c0,0.182-0.085,0.272-0.256,0.272h-1.216c-1.408,0-2.112-0.565-2.112-1.696v-1.376
		C199.931,113.507,198.053,114.584,195.707,114.584z"/>
	<path fill="#D0C8C5" stroke="#D0C8C5" stroke-width="2" stroke-miterlimit="10" d="M208.539,114.296
		c0,0.171-0.091,0.256-0.272,0.256c-0.182,0-0.272-0.085-0.272-0.256v-10.176c0-0.747-0.523-1.12-1.568-1.12h-1.184
		c-0.192,0-0.288-0.091-0.288-0.272c0-0.181,0.096-0.271,0.288-0.271h1.248c1.365,0,2.048,0.555,2.048,1.664v1.504
		c0.661-1.109,1.354-1.941,2.08-2.496s1.579-0.832,2.56-0.832c0.981,0,1.749,0.171,2.304,0.512c0.106,0.064,0.16,0.149,0.16,0.256
		v2.849c0,0.171-0.091,0.256-0.272,0.256c-0.182,0-0.272-0.085-0.272-0.256v-2.721c-0.512-0.234-1.077-0.352-1.696-0.352
		c-1.045,0-1.947,0.299-2.704,0.896c-0.757,0.598-1.478,1.568-2.16,2.912V114.296z"/>
	<path fill="#D0C8C5" stroke="#D0C8C5" stroke-width="2" stroke-miterlimit="10" d="M223.706,114.584
		c-1.813,0-3.232-0.581-4.256-1.744c-1.024-1.162-1.536-2.645-1.536-4.448c0-1.803,0.533-3.269,1.6-4.399
		c1.066-1.131,2.464-1.696,4.192-1.696s3.008,0.522,3.84,1.568c0.832,1.045,1.248,2.464,1.248,4.256
		c0,0.191-0.085,0.288-0.256,0.288h-10.08v0.031c0,1.707,0.475,3.067,1.424,4.08c0.949,1.014,2.224,1.521,3.824,1.521
		c2.048,0,3.552-0.769,4.512-2.305c0.106-0.148,0.235-0.176,0.384-0.079c0.149,0.096,0.181,0.219,0.096,0.367
		C227.631,113.731,225.967,114.584,223.706,114.584z M228.25,107.865c0-1.515-0.374-2.73-1.12-3.648
		c-0.747-0.917-1.877-1.376-3.392-1.376s-2.741,0.459-3.68,1.376c-0.939,0.918-1.472,2.134-1.6,3.648H228.25z"/>
	<path fill="#D0C8C5" stroke="#D0C8C5" stroke-width="2" stroke-miterlimit="10" d="M232.186,113.752
		c-0.149-0.064-0.224-0.171-0.224-0.32v-2.784c0-0.17,0.091-0.256,0.272-0.256s0.272,0.086,0.272,0.256v2.624
		c0.981,0.513,2.336,0.769,4.064,0.769c3.008,0,4.512-0.896,4.512-2.688c0-0.704-0.277-1.301-0.832-1.792
		c-0.384-0.341-1.131-0.64-2.24-0.896c-0.235-0.043-0.955-0.197-2.16-0.464c-1.206-0.267-2.112-0.613-2.72-1.04
		c-0.608-0.427-0.912-1.045-0.912-1.856c0-2.005,1.546-3.008,4.64-3.008c1.664,0,3.04,0.288,4.128,0.864
		c0.171,0.085,0.256,0.182,0.256,0.288v2.72c0,0.171-0.091,0.256-0.272,0.256c-0.182,0-0.272-0.085-0.272-0.256v-2.561
		c-0.981-0.512-2.262-0.768-3.84-0.768c-2.731,0-4.096,0.821-4.096,2.464c0,0.576,0.149,0.981,0.448,1.216
		c0.299,0.235,0.528,0.406,0.688,0.513c0.16,0.106,0.416,0.213,0.768,0.319c0.352,0.107,0.592,0.182,0.72,0.225
		c0.811,0.191,1.397,0.319,1.76,0.384c0.363,0.063,0.688,0.128,0.976,0.191c0.288,0.064,0.699,0.192,1.232,0.385
		c0.533,0.191,0.938,0.395,1.216,0.607c0.704,0.576,1.056,1.248,1.056,2.017c0,0.768-0.166,1.376-0.496,1.823
		c-0.331,0.448-0.763,0.779-1.296,0.992c-1.003,0.405-2.224,0.608-3.664,0.608S233.401,114.307,232.186,113.752z"/>
</g>
<g>
	<path fill="#D0C8C5" d="M581.697,143.346h-5.177c-5.992,0-8.988-2.407-8.988-7.22V105.21c0-3.541-1.114-6.285-3.338-8.242
		c-2.226-1.949-5.379-2.926-9.464-2.926c-10.263,0-18.251,5.266-23.973,15.799v32.961c0,0.819-0.387,1.226-1.158,1.226
		c-0.773,0-1.158-0.407-1.158-1.226V43.51h-11.713c-0.817,0-1.226-0.384-1.226-1.158c0-0.771,0.409-1.158,1.226-1.158h12.939
		c0.725,0,1.089,0.409,1.089,1.226v63.333c5.902-9.352,13.893-14.028,23.973-14.028c4.63,0,8.307,1.18,11.031,3.541
		c2.725,2.361,4.086,5.674,4.086,9.942v30.916c0,3.271,2.224,4.905,6.673,4.905h5.177c0.725,0,1.089,0.387,1.089,1.156
		C582.786,142.96,582.422,143.346,581.697,143.346z"/>
	<path fill="#D0C8C5" d="M613.975,144.028c-7.719,0-13.756-2.473-18.116-7.424c-4.358-4.946-6.536-11.256-6.536-18.933
		c0-7.673,2.267-13.912,6.81-18.725c4.539-4.813,10.487-7.22,17.842-7.22s12.802,2.224,16.344,6.675
		c3.541,4.447,5.312,10.487,5.312,18.114c0,0.815-0.364,1.226-1.089,1.226h-42.904v0.133c0,7.266,2.02,13.056,6.06,17.366
		c4.04,4.314,9.466,6.472,16.277,6.472c8.716,0,15.117-3.271,19.203-9.809c0.453-0.632,1-0.748,1.636-0.337
		c0.634,0.407,0.769,0.931,0.407,1.563C630.68,140.395,623.597,144.028,613.975,144.028z M633.315,115.427
		c0-6.447-1.59-11.622-4.768-15.529c-3.18-3.903-7.991-5.857-14.438-5.857s-11.667,1.954-15.662,5.857
		c-3.996,3.907-6.266,9.082-6.81,15.529H633.315z"/>
	<path fill="#D0C8C5" d="M670.36,144.028c-4.813,0-8.535-1.226-11.169-3.679c-2.635-2.452-3.951-5.719-3.951-9.805v-30.92
		c0-3.267-2.226-4.901-6.673-4.901h-5.04c-0.817,0-1.224-0.387-1.224-1.16c0-0.769,0.407-1.156,1.224-1.156h5.04
		c5.994,0,8.991,2.407,8.991,7.216v30.92c0,3.541,1.133,6.289,3.404,8.238c2.269,1.954,5.401,2.93,9.398,2.93
		c10.352,0,18.341-5.221,23.971-15.666V92.952c0-0.819,0.387-1.226,1.158-1.226s1.158,0.407,1.158,1.226v43.174
		c0,3.271,2.224,4.905,6.675,4.905h5.175c0.725,0,1.089,0.387,1.089,1.156c0,0.773-0.364,1.16-1.089,1.16h-5.175
		c-5.994,0-8.991-2.407-8.991-7.22v-5.857C688.339,139.443,680.348,144.028,670.36,144.028z"/>
	<path fill="#D0C8C5" d="M724.977,142.802c0,0.727-0.389,1.089-1.158,1.089c-0.773,0-1.16-0.362-1.16-1.089V99.491
		c0-3.18-2.226-4.768-6.673-4.768h-5.04c-0.817,0-1.224-0.387-1.224-1.16c0-0.769,0.407-1.156,1.224-1.156h5.312
		c5.811,0,8.718,2.361,8.718,7.083v6.401c2.812-4.722,5.765-8.263,8.851-10.624c3.086-2.361,6.719-3.541,10.896-3.541
		c4.175,0,7.444,0.727,9.807,2.178c0.453,0.274,0.682,0.636,0.682,1.089v12.125c0,0.727-0.389,1.089-1.158,1.089
		c-0.773,0-1.16-0.362-1.16-1.089v-11.58c-2.178-0.998-4.585-1.496-7.218-1.496c-4.45,0-8.286,1.272-11.509,3.812
		c-3.223,2.544-6.289,6.675-9.192,12.395V142.802z"/>
	<path fill="#D0C8C5" d="M789.534,144.028c-7.719,0-13.756-2.473-18.116-7.424c-4.358-4.946-6.536-11.256-6.536-18.933
		c0-7.673,2.267-13.912,6.81-18.725c4.539-4.813,10.487-7.22,17.842-7.22s12.802,2.224,16.344,6.675
		c3.541,4.447,5.312,10.487,5.312,18.114c0,0.815-0.364,1.226-1.089,1.226h-42.904v0.133c0,7.266,2.02,13.056,6.06,17.366
		c4.04,4.314,9.466,6.472,16.277,6.472c8.716,0,15.117-3.271,19.203-9.809c0.453-0.632,1-0.748,1.636-0.337
		c0.634,0.407,0.769,0.931,0.407,1.563C806.239,140.395,799.157,144.028,789.534,144.028z M808.875,115.427
		c0-6.447-1.59-11.622-4.768-15.529c-3.18-3.903-7.991-5.857-14.438-5.857c-6.447,0-11.667,1.954-15.662,5.857
		c-3.997,3.907-6.266,9.082-6.81,15.529H808.875z"/>
	<path fill="#D0C8C5" d="M825.625,140.486c-0.636-0.274-0.954-0.727-0.954-1.363v-11.85c0-0.723,0.387-1.089,1.158-1.089
		s1.158,0.366,1.158,1.089v11.169c4.177,2.182,9.945,3.271,17.299,3.271c12.802,0,19.203-3.816,19.203-11.443
		c0-2.997-1.18-5.536-3.541-7.627c-1.633-1.451-4.813-2.723-9.533-3.812c-1.002-0.183-4.065-0.84-9.194-1.974
		c-5.131-1.135-8.989-2.61-11.578-4.427c-2.587-1.816-3.88-4.447-3.88-7.902c0-8.533,6.582-12.802,19.748-12.802
		c7.083,0,12.939,1.226,17.57,3.679c0.727,0.362,1.091,0.773,1.091,1.226v11.576c0,0.727-0.389,1.089-1.158,1.089
		c-0.773,0-1.158-0.362-1.158-1.089V97.308c-4.177-2.178-9.627-3.267-16.346-3.267c-11.624,0-17.433,3.496-17.433,10.487
		c0,2.452,0.634,4.177,1.906,5.175c1.272,1.002,2.249,1.729,2.928,2.182c0.682,0.453,1.771,0.906,3.269,1.359
		c1.498,0.457,2.521,0.773,3.065,0.956c3.45,0.815,5.946,1.359,7.49,1.634c1.544,0.27,2.928,0.545,4.154,0.815
		c1.226,0.274,2.974,0.819,5.243,1.638c2.269,0.815,3.994,1.679,5.177,2.585c2.995,2.452,4.493,5.312,4.493,8.583
		c0,3.267-0.705,5.857-2.112,7.76c-1.407,1.908-3.246,3.317-5.516,4.223c-4.269,1.725-9.466,2.59-15.595,2.59
		C836.453,144.028,830.8,142.847,825.625,140.486z"/>
</g>
</svg>
